<svg width="1000" height="300" fill="none" xmlns="http://www.w3.org/2000/svg">
  <g clip-path="url(#clip0)">
    <path d="M22.334 18.62v-3.528h3.552v3.528h-3.552zm1.776-.144c.232 0 .448-.04.648-.12.2-.08.372-.192.516-.336.144-.144.256-.316.336-.516.088-.2.132-.416.132-.648 0-.232-.044-.448-.132-.648-.08-.2-.192-.372-.336-.516a1.517 1.517 0 00-.516-.336c-.2-.08-.416-.12-.648-.12-.232 0-.448.04-.648.12-.2.08-.372.192-.516.336-.144.144-.26.316-.348.516-.08.2-.12.416-.12.648 0 .232.04.448.12.648.088.2.204.372.348.516.144.144.316.256.516.336.2.08.416.12.648.12zm64.411.324v-5.52h5.568v5.52h-5.568zm2.784-.048c.4 0 .768-.068 1.104-.204.336-.136.624-.324.864-.564a2.737 2.737 0 00.768-1.944c0-.384-.068-.74-.204-1.068a2.568 2.568 0 00-.564-.864 2.481 2.481 0 00-.864-.576 2.916 2.916 0 00-1.104-.204c-.4 0-.768.068-1.104.204a2.481 2.481 0 00-.864.576c-.24.24-.428.528-.564.864a2.76 2.76 0 00-.204 1.068 2.737 2.737 0 00.768 1.944c.24.24.528.428.864.564.336.136.704.204 1.104.204zm0-.588c-.296 0-.572-.052-.828-.156a2 2 0 01-.648-.432 2.221 2.221 0 01-.42-.672 2.337 2.337 0 01-.156-.864c0-.312.052-.596.156-.852.104-.264.244-.488.42-.672.184-.192.4-.34.648-.444.256-.104.532-.156.828-.156.296 0 .568.052.816.156.256.104.472.252.648.444.184.184.328.408.432.672.104.256.156.54.156.852 0 .312-.052.6-.156.864-.104.256-.248.48-.432.672a1.842 1.842 0 01-.648.432 2.09 2.09 0 01-.816.156zM154.9 24.8V8h3.6v8.4h3.6v8.4h-7.2zm67.808-4.392v-4.752h.612c0 .576.104 1.116.312 1.62.216.496.512.936.888 1.32.384.376.824.672 1.32.888a4.204 4.204 0 001.62.312c.576 0 1.112-.104 1.608-.312a4.17 4.17 0 001.32-.888c.384-.384.68-.824.888-1.32a4.069 4.069 0 00.324-1.62h.612v4.752h-9.504zm4.752-1.284c-.48 0-.932-.088-1.356-.264a3.727 3.727 0 01-1.104-.744 3.727 3.727 0 01-.744-1.104 3.501 3.501 0 01-.264-1.356h6.936c0 .48-.092.932-.276 1.356a3.446 3.446 0 01-.744 1.104c-.312.312-.68.56-1.104.744a3.413 3.413 0 01-1.344.264zm65.358 5.676V8h3.6v8.4h3.6v8.4h-7.2zm74.396-8.4h-3.6v8.4h-3.6V8h7.2v8.4zm59.995 8.4V8h3.6v8.4h3.6v8.4h-7.2zm74.863-8.868h-4.536V24.8h-.936v-9.804h5.472v.936zm0 1.872h-2.664V24.8h-.936v-7.932h3.6v.936zm64.304 2.124a4.069 4.069 0 01-1.62-.324 4.357 4.357 0 01-1.32-.888 4.212 4.212 0 01-.9-1.332 4.069 4.069 0 01-.324-1.62c0-.576.108-1.112.324-1.608.216-.504.512-.948.888-1.332a4.212 4.212 0 011.332-.9 4.069 4.069 0 011.62-.324 4.069 4.069 0 012.94 1.224 4.073 4.073 0 011.224 2.94c0 .576-.108 1.116-.324 1.62a4.05 4.05 0 01-.888 1.332 4.17 4.17 0 01-1.32.888 4.099 4.099 0 01-1.632.324zm-1.56-3.24a.862.862 0 00.648-.276.887.887 0 00.276-.648.862.862 0 00-.276-.648.862.862 0 00-.648-.276.887.887 0 00-.648.276.862.862 0 00-.276.648c0 .248.092.464.276.648.184.184.4.276.648.276zm3.12 0a.862.862 0 00.648-.276.887.887 0 00.276-.648.862.862 0 00-.276-.648.862.862 0 00-.648-.276.887.887 0 00-.648.276.862.862 0 00-.276.648c0 .248.092.464.276.648.184.184.4.276.648.276zM634.75 8h3.6v8.4h-3.6V8zm-3.6 8.4h3.6v8.4h-3.6v-8.4zm71.972 3.528a4.069 4.069 0 01-1.62-.324 4.357 4.357 0 01-1.32-.888 4.212 4.212 0 01-.9-1.332 4.069 4.069 0 01-.324-1.62c0-.576.108-1.112.324-1.608.216-.504.512-.948.888-1.332a4.212 4.212 0 011.332-.9 4.069 4.069 0 011.62-.324 4.069 4.069 0 012.94 1.224 4.073 4.073 0 011.224 2.94c0 .576-.108 1.116-.324 1.62a4.17 4.17 0 01-2.22 2.22 4.069 4.069 0 01-1.62.324zm0-.864c.464 0 .896-.084 1.296-.252.4-.176.748-.416 1.044-.72.304-.304.54-.652.708-1.044.168-.4.252-.828.252-1.284 0-.464-.088-.896-.264-1.296a3.135 3.135 0 00-.708-1.044 3.269 3.269 0 00-2.328-.96c-.464 0-.896.088-1.296.264-.4.168-.752.404-1.056.708a3.368 3.368 0 00-.696 1.056 3.195 3.195 0 00-.252 1.272c0 .464.084.896.252 1.296.176.4.416.752.72 1.056.304.296.652.528 1.044.696.4.168.828.252 1.284.252zm1.56-2.376a.907.907 0 01-.648-.264.9.9 0 01-.276-.66c0-.256.092-.472.276-.648a.887.887 0 01.648-.276c.256 0 .472.092.648.276a.862.862 0 01.276.648.887.887 0 01-.276.648.862.862 0 01-.648.276zM772.9 24.8h-.936v-8.868h-4.536v-.936h5.472V24.8zm-1.872 0h-.936v-6.996h-2.664v-.936h3.6V24.8zm64.064 0v-8.4h3.6v8.4h-3.6zm67.807-4.752v-8.784h8.784v8.784h-8.784zm8.244-.864v-2.136l-5.22-5.244h-2.148l7.368 7.38zm0-2.892v-2.184l-2.292-2.304h-2.16l4.452 4.488zm0-2.952v-1.536h-1.536l1.536 1.536zm-2.604 6.168h2.148l-7.248-7.26v2.136l5.1 5.124zm-2.82 0h2.052l-4.332-4.368v2.064l2.28 2.304zm-2.28 0h1.512l-1.512-1.536v1.536zm68.856 5.292v-8.4h3.6v8.4h-3.6zM22.473 84.928a4.069 4.069 0 01-1.62-.324 4.357 4.357 0 01-1.32-.888 4.212 4.212 0 01-.9-1.332 4.069 4.069 0 01-.324-1.62c0-.576.108-1.112.324-1.608.216-.504.512-.948.888-1.332a4.212 4.212 0 011.332-.9 4.069 4.069 0 011.62-.324 4.069 4.069 0 012.94 1.224 4.073 4.073 0 011.224 2.94c0 .576-.108 1.116-.324 1.62a4.05 4.05 0 01-.888 1.332 4.17 4.17 0 01-1.32.888 4.099 4.099 0 01-1.632.324zm-1.56-3.24a.862.862 0 00.648-.276.887.887 0 00.276-.648.862.862 0 00-.276-.648.862.862 0 00-.648-.276.887.887 0 00-.648.276.862.862 0 00-.276.648c0 .248.092.464.276.648.184.184.4.276.648.276zm3.12 0a.862.862 0 00.648-.276.887.887 0 00.276-.648.862.862 0 00-.276-.648.862.862 0 00-.648-.276.887.887 0 00-.648.276.862.862 0 00-.276.648c0 .248.092.464.276.648.184.184.4.276.648.276zm63.827 3.36v-8.784h8.784v8.784H87.86zm8.244-.864v-2.136l-5.22-5.244h-2.148l7.368 7.38zm0-2.892v-2.184l-2.292-2.304h-2.16l4.452 4.488zm0-2.952v-1.536h-1.536l1.536 1.536zM93.5 84.508h2.148l-7.248-7.26v2.136l5.1 5.124zm-2.82 0h2.052L88.4 80.14v2.064l2.28 2.304zm-2.28 0h1.512L88.4 82.972v1.536zm70.68-.888v-3.528h3.552v3.528h-3.552zm1.776-.144c.232 0 .448-.04.648-.12.2-.08.372-.192.516-.336.144-.144.256-.316.336-.516.088-.2.132-.416.132-.648 0-.232-.044-.448-.132-.648-.08-.2-.192-.372-.336-.516a1.517 1.517 0 00-.516-.336c-.2-.08-.416-.12-.648-.12-.232 0-.448.04-.648.12-.2.08-.372.192-.516.336-.144.144-.26.316-.348.516-.08.2-.12.416-.12.648 0 .232.04.448.12.648.088.2.204.372.348.516.144.144.316.256.516.336.2.08.416.12.648.12zm64.207 1.572v-8.784h8.784v8.784h-8.784zm4.404-7.608l.624-.636h-1.236l.612.636zm-1.452 1.452l1.068-1.068-.996-1.02h-.156l-1.008 1.008 1.092 1.08zm-1.464-1.464l.612-.624h-1.224l.612.624zm4.368 1.464l1.08-1.08-.984-1.008h-.168l-.996 1.02 1.068 1.068zm1.464-1.464l.612-.624h-1.224l.612.624zm-6.78.936l.564-.552-.564-.564v1.116zm7.704-.024v-1.068l-.528.54.528.528zm-6.744 2.004l1.068-1.068-1.08-1.068-.948.936v.24l.96.96zm5.796 0l.948-.936v-.3l-.924-.9-1.08 1.08 1.056 1.056zm-2.892 0l1.08-1.068-1.08-1.068-1.068 1.068 1.068 1.068zm-1.452 1.452l1.068-1.068-1.068-1.068-1.068 1.068 1.068 1.068zm2.904 0l1.068-1.068-1.068-1.056-1.068 1.068 1.068 1.056zm-5.316-.48l.576-.588-.576-.588v1.176zm7.704-.024v-1.116l-.564.552.564.564zm-6.696 1.92l1.02-1.032-1.068-1.068-.96.972v.12l1.008 1.008zm5.724 0l.972-.984v-.18l-.948-.936-1.056 1.068 1.032 1.032zm-2.868.06l1.08-1.092-1.08-1.056-1.068 1.08 1.068 1.068zm1.236 1.236h.348l.9-.9-1.032-1.044-1.068 1.092.852.852zm-2.82 0h.348l.852-.852-1.068-1.08-1.032 1.032.9.9zm-2.28-.3l.624-.612-.624-.624v1.236zm7.704-.024V83.02l-.588.588.588.576zm-1.488.324h1.032l-.516-.516-.516.516zm-5.724 0h1.02l-.504-.516-.516.516zm2.904 0h.936l-.468-.468-.468.468zm66.072.54v-8.784h8.784v8.784h-8.784zm.54-3.756l4.452-4.488h-2.16l-2.292 2.304v2.184zm0 2.892l7.368-7.38h-2.148l-5.22 5.244v2.136zm0-5.844l1.536-1.536h-1.536v1.536zm.456 6.168h2.148l5.1-5.124v-2.136l-7.248 7.26zm2.916 0h2.052l2.28-2.304V80.14l-4.332 4.368zm2.82 0h1.512v-1.536l-1.512 1.536zm66.264 5.292v-8.4h3.6v8.4h-3.6zm68.599 0h-.936v-8.868h-4.536v-.936h5.472V89.8zm-1.872 0h-.936v-6.996h-2.664v-.936h3.6V89.8zm64.675-9.144v-4.752h9.504v4.752h-.612c0-.576-.108-1.112-.324-1.608a3.92 3.92 0 00-.888-1.32 3.92 3.92 0 00-1.32-.888 3.983 3.983 0 00-1.608-.324c-.576 0-1.116.108-1.62.324a4.084 4.084 0 00-1.32.888 4.17 4.17 0 00-.888 1.32 4.116 4.116 0 00-.312 1.608h-.612zm1.284 0c0-.48.088-.928.264-1.344.184-.424.432-.792.744-1.104.32-.32.688-.568 1.104-.744a3.37 3.37 0 011.356-.276c.48 0 .928.092 1.344.276a3.28 3.28 0 011.104.744c.32.312.568.68.744 1.104.184.416.276.864.276 1.344h-6.936zM569.58 89.8v-2.1h7.2v2.1h-7.2zm70.795-8.4V73h3.6v8.4h-3.6zm67.196 8.4v-8.4h3.6v8.4h-3.6zm71.263-8.868h-4.536V89.8h-.936v-9.804h5.472v.936zm0 1.872h-2.664V89.8h-.936v-7.932h3.6v.936zm64.531 6.996h-.936v-8.868h-4.536v-.936h5.472V89.8zm-1.872 0h-.936v-6.996h-2.664v-.936h3.6V89.8zm68.84-4.872a4.069 4.069 0 01-1.62-.324 4.357 4.357 0 01-1.32-.888 4.212 4.212 0 01-.9-1.332 4.069 4.069 0 01-.324-1.62c0-.576.108-1.112.324-1.608.216-.504.512-.948.888-1.332a4.212 4.212 0 011.332-.9 4.069 4.069 0 011.62-.324 4.069 4.069 0 012.94 1.224 4.073 4.073 0 011.224 2.94c0 .576-.108 1.116-.324 1.62a4.05 4.05 0 01-.888 1.332 4.17 4.17 0 01-1.32.888 4.099 4.099 0 01-1.632.324zm-1.56-3.24a.862.862 0 00.648-.276.887.887 0 00.276-.648.862.862 0 00-.276-.648.862.862 0 00-.648-.276.887.887 0 00-.648.276.862.862 0 00-.276.648c0 .248.092.464.276.648.184.184.4.276.648.276zm3.12 0a.862.862 0 00.648-.276.887.887 0 00.276-.648.862.862 0 00-.276-.648.862.862 0 00-.648-.276.887.887 0 00-.648.276.862.862 0 00-.276.648c0 .248.092.464.276.648.184.184.4.276.648.276zm66.814 8.112v-8.4h3.6v8.4h-3.6zm-956.791 65v-8.4h7.2v8.4h-7.2zm66.727-8.868v-.936h8.136v.936h-8.136zm8.136 1.872h-2.664v6.996h-.936v-7.932h3.6v.936zm-4.536 6.996h-.936v-6.996h-2.664v-.936h3.6v7.932zm64.064-14.7V138h7.2v2.1h-7.2zm72.199 14.7h-.936v-8.868h-4.536v-.936h5.472v9.804zm-1.872 0h-.936v-6.996h-2.664v-.936h3.6v7.932zm65.887-6.18v-3.528h3.552v3.528h-3.552zm1.776-.144c.232 0 .448-.04.648-.12.2-.08.372-.192.516-.336.144-.144.256-.316.336-.516.088-.2.132-.416.132-.648 0-.232-.044-.448-.132-.648-.08-.2-.192-.372-.336-.516a1.517 1.517 0 00-.516-.336c-.2-.08-.416-.12-.648-.12-.232 0-.448.04-.648.12-.2.08-.372.192-.516.336-.144.144-.26.316-.348.516-.08.2-.12.416-.12.648 0 .232.04.448.12.648.088.2.204.372.348.516.144.144.316.256.516.336.2.08.416.12.648.12zm64.412.324v-5.52h5.568v5.52h-5.568zm2.784-.048c.4 0 .768-.068 1.104-.204.336-.136.624-.324.864-.564a2.737 2.737 0 00.768-1.944c0-.384-.068-.74-.204-1.068a2.568 2.568 0 00-.564-.864 2.481 2.481 0 00-.864-.576 2.916 2.916 0 00-1.104-.204c-.4 0-.768.068-1.104.204a2.481 2.481 0 00-.864.576c-.24.24-.428.528-.564.864a2.76 2.76 0 00-.204 1.068 2.737 2.737 0 00.768 1.944c.24.24.528.428.864.564.336.136.704.204 1.104.204zm0-.588c-.296 0-.572-.052-.828-.156a2 2 0 01-.648-.432 2.221 2.221 0 01-.42-.672 2.337 2.337 0 01-.156-.864c0-.312.052-.596.156-.852.104-.264.244-.488.42-.672.184-.192.4-.34.648-.444.256-.104.532-.156.828-.156.296 0 .568.052.816.156.256.104.472.252.648.444.184.184.328.408.432.672.104.256.156.54.156.852 0 .312-.052.6-.156.864-.104.256-.248.48-.432.672a1.842 1.842 0 01-.648.432 2.09 2.09 0 01-.816.156zm63.595 6.636V138h3.6v8.4h3.6v8.4h-7.2zm67.807-4.392v-4.752h.612c0 .576.104 1.116.312 1.62.216.496.512.936.888 1.32.384.376.824.672 1.32.888a4.204 4.204 0 001.62.312c.576 0 1.112-.104 1.608-.312a4.17 4.17 0 001.32-.888c.384-.384.68-.824.888-1.32a4.069 4.069 0 00.324-1.62h.612v4.752h-9.504zm4.752-1.284c-.48 0-.932-.088-1.356-.264a3.727 3.727 0 01-1.104-.744 3.727 3.727 0 01-.744-1.104 3.501 3.501 0 01-.264-1.356h6.936c0 .48-.092.932-.276 1.356a3.446 3.446 0 01-.744 1.104c-.312.312-.68.56-1.104.744a3.413 3.413 0 01-1.344.264zm65.359 5.676V138h3.6v8.4h3.6v8.4h-7.2zm74.863-8.868h-4.536v8.868h-.936v-9.804h5.472v.936zm0 1.872h-2.664v6.996h-.936v-7.932h3.6v.936zm64.303 2.124a4.069 4.069 0 01-1.62-.324 4.357 4.357 0 01-1.32-.888 4.212 4.212 0 01-.9-1.332 4.069 4.069 0 01-.324-1.62c0-.576.108-1.112.324-1.608.216-.504.512-.948.888-1.332a4.212 4.212 0 011.332-.9 4.069 4.069 0 011.62-.324 4.069 4.069 0 012.94 1.224 4.073 4.073 0 011.224 2.94c0 .576-.108 1.116-.324 1.62a4.05 4.05 0 01-.888 1.332 4.17 4.17 0 01-1.32.888 4.099 4.099 0 01-1.632.324zm-1.56-3.24a.862.862 0 00.648-.276.887.887 0 00.276-.648.862.862 0 00-.276-.648.862.862 0 00-.648-.276.887.887 0 00-.648.276.862.862 0 00-.276.648c0 .248.092.464.276.648.184.184.4.276.648.276zm3.12 0a.862.862 0 00.648-.276.887.887 0 00.276-.648.862.862 0 00-.276-.648.862.862 0 00-.648-.276.887.887 0 00-.648.276.862.862 0 00-.276.648c0 .248.092.464.276.648.184.184.4.276.648.276zM770.547 138h3.6v8.4h-3.6V138zm-3.6 8.4h3.6v8.4h-3.6v-8.4zm71.972 3.528a4.069 4.069 0 01-1.62-.324 4.357 4.357 0 01-1.32-.888 4.212 4.212 0 01-.9-1.332 4.069 4.069 0 01-.324-1.62c0-.576.108-1.112.324-1.608.216-.504.512-.948.888-1.332a4.212 4.212 0 011.332-.9 4.069 4.069 0 011.62-.324 4.069 4.069 0 012.94 1.224 4.073 4.073 0 011.224 2.94c0 .576-.108 1.116-.324 1.62a4.17 4.17 0 01-2.22 2.22 4.069 4.069 0 01-1.62.324zm0-.864c.464 0 .896-.084 1.296-.252.4-.176.748-.416 1.044-.72.304-.304.54-.652.708-1.044.168-.4.252-.828.252-1.284 0-.464-.088-.896-.264-1.296a3.135 3.135 0 00-.708-1.044 3.269 3.269 0 00-2.328-.96c-.464 0-.896.088-1.296.264-.4.168-.752.404-1.056.708a3.368 3.368 0 00-.696 1.056 3.195 3.195 0 00-.252 1.272c0 .464.084.896.252 1.296.176.4.416.752.72 1.056.304.296.652.528 1.044.696.4.168.828.252 1.284.252zm1.56-2.376a.907.907 0 01-.648-.264.9.9 0 01-.276-.66c0-.256.092-.472.276-.648a.887.887 0 01.648-.276c.256 0 .472.092.648.276a.862.862 0 01.276.648.887.887 0 01-.276.648.862.862 0 01-.648.276zm68.218 8.112h-.936v-8.868h-4.536v-.936h5.472v9.804zm-1.872 0h-.936v-6.996h-2.664v-.936h3.6v7.932zm64.064 0v-8.4h3.6v8.4h-3.6zM16.674 215.048v-8.784h8.785v8.784h-8.785zm8.245-.864v-2.136l-5.22-5.244H17.55l7.369 7.38zm0-2.892v-2.184l-2.293-2.304h-2.16l4.453 4.488zm0-2.952v-1.536h-1.537l1.537 1.536zm-2.605 6.168h2.148l-7.247-7.26v2.136l5.1 5.124zm-2.82 0h2.053l-4.332-4.368v2.064l2.28 2.304zm-2.28 0h1.513l-1.512-1.536v1.536zM86.07 219.8v-8.4h3.6v8.4h-3.6zm71.972-4.872a4.069 4.069 0 01-1.62-.324 4.357 4.357 0 01-1.32-.888 4.212 4.212 0 01-.9-1.332 4.069 4.069 0 01-.324-1.62c0-.576.108-1.112.324-1.608.216-.504.512-.948.888-1.332a4.212 4.212 0 011.332-.9 4.069 4.069 0 011.62-.324 4.069 4.069 0 012.94 1.224 4.073 4.073 0 011.224 2.94c0 .576-.108 1.116-.324 1.62a4.05 4.05 0 01-.888 1.332 4.17 4.17 0 01-1.32.888 4.099 4.099 0 01-1.632.324zm-1.56-3.24a.862.862 0 00.648-.276.887.887 0 00.276-.648.862.862 0 00-.276-.648.862.862 0 00-.648-.276.887.887 0 00-.648.276.862.862 0 00-.276.648c0 .248.092.464.276.648.184.184.4.276.648.276zm3.12 0a.862.862 0 00.648-.276.887.887 0 00.276-.648.862.862 0 00-.276-.648.862.862 0 00-.648-.276.887.887 0 00-.648.276.862.862 0 00-.276.648c0 .248.092.464.276.648.184.184.4.276.648.276zm63.826 3.36v-8.784h8.784v8.784h-8.784zm8.244-.864v-2.136l-5.22-5.244h-2.148l7.368 7.38zm0-2.892v-2.184l-2.292-2.304h-2.16l4.452 4.488zm0-2.952v-1.536h-1.536l1.536 1.536zm-2.604 6.168h2.148l-7.248-7.26v2.136l5.1 5.124zm-2.82 0h2.052l-4.332-4.368v2.064l2.28 2.304zm-2.28 0h1.512l-1.512-1.536v1.536zm70.68-.888v-3.528h3.552v3.528h-3.552zm1.776-.144c.232 0 .448-.04.648-.12.2-.08.372-.192.516-.336.144-.144.256-.316.336-.516.088-.2.132-.416.132-.648 0-.232-.044-.448-.132-.648-.08-.2-.192-.372-.336-.516a1.517 1.517 0 00-.516-.336c-.2-.08-.416-.12-.648-.12-.232 0-.448.04-.648.12-.2.08-.372.192-.516.336-.144.144-.26.316-.348.516-.08.2-.12.416-.12.648 0 .232.04.448.12.648.088.2.204.372.348.516.144.144.316.256.516.336.2.08.416.12.648.12zm64.208 1.572v-8.784h8.784v8.784h-8.784zm4.404-7.608l.624-.636h-1.236l.612.636zm-1.452 1.452l1.068-1.068-.996-1.02h-.156l-1.008 1.008 1.092 1.08zm-1.464-1.464l.612-.624h-1.224l.612.624zm4.368 1.464l1.08-1.08-.984-1.008h-.168l-.996 1.02 1.068 1.068zm1.464-1.464l.612-.624h-1.224l.612.624zm-6.78.936l.564-.552-.564-.564v1.116zm7.704-.024v-1.068l-.528.54.528.528zm-6.744 2.004l1.068-1.068-1.08-1.068-.948.936v.24l.96.96zm5.796 0l.948-.936v-.3l-.924-.9-1.08 1.08 1.056 1.056zm-2.892 0l1.08-1.068-1.08-1.068-1.068 1.068 1.068 1.068zm-1.452 1.452l1.068-1.068-1.068-1.068-1.068 1.068 1.068 1.068zm2.904 0l1.068-1.068-1.068-1.056-1.068 1.068 1.068 1.056zm-5.316-.48l.576-.588-.576-.588v1.176zm7.704-.024v-1.116l-.564.552.564.564zm-6.696 1.92l1.02-1.032-1.068-1.068-.96.972v.12l1.008 1.008zm5.724 0l.972-.984v-.18l-.948-.936-1.056 1.068 1.032 1.032zm-2.868.06l1.08-1.092-1.08-1.056-1.068 1.08 1.068 1.068zm1.236 1.236h.348l.9-.9-1.032-1.044-1.068 1.092.852.852zm-2.82 0h.348l.852-.852-1.068-1.08-1.032 1.032.9.9zm-2.28-.3l.624-.612-.624-.624v1.236zm7.704-.024v-1.164l-.588.588.588.576zm-1.488.324h1.032l-.516-.516-.516.516zm-5.724 0h1.02l-.504-.516-.516.516zm2.904 0h.936l-.468-.468-.468.468zm66.071.54v-8.784h8.784v8.784h-8.784zm.54-3.756l4.452-4.488h-2.16l-2.292 2.304v2.184zm0 2.892l7.368-7.38h-2.148l-5.22 5.244v2.136zm0-5.844l1.536-1.536h-1.536v1.536zm.456 6.168h2.148l5.1-5.124v-2.136l-7.248 7.26zm2.916 0h2.052l2.28-2.304v-2.064l-4.332 4.368zm2.82 0h1.512v-1.536l-1.512 1.536zm66.264 5.292v-8.4h3.6v8.4h-3.6zm68.599 0h-.936v-8.868h-4.536v-.936h5.472v9.804zm-1.872 0h-.936v-6.996h-2.664v-.936h3.6v7.932zm64.676-9.144v-4.752h9.504v4.752h-.612c0-.576-.108-1.112-.324-1.608a3.92 3.92 0 00-.888-1.32 3.92 3.92 0 00-1.32-.888 3.983 3.983 0 00-1.608-.324c-.576 0-1.116.108-1.62.324a4.084 4.084 0 00-1.32.888 4.17 4.17 0 00-.888 1.32 4.116 4.116 0 00-.312 1.608h-.612zm1.284 0c0-.48.088-.928.264-1.344.184-.424.432-.792.744-1.104.32-.32.688-.568 1.104-.744a3.37 3.37 0 011.356-.276c.48 0 .928.092 1.344.276a3.28 3.28 0 011.104.744c.32.312.568.68.744 1.104.184.416.276.864.276 1.344h-6.936zm68.826 9.144v-2.1h7.2v2.1h-7.2zm70.796-8.4V203h3.6v8.4h-3.6zm67.195 8.4v-8.4h3.6v8.4h-3.6zm64.207-4.752v-8.784h8.784v8.784h-8.784zm.54-3.756l4.452-4.488h-2.16l-2.292 2.304v2.184zm0 2.892l7.368-7.38h-2.148l-5.22 5.244v2.136zm0-5.844l1.536-1.536h-1.536v1.536zm.456 6.168h2.148l5.1-5.124v-2.136l-7.248 7.26zm2.916 0h2.052l2.28-2.304v-2.064l-4.332 4.368zm2.82 0h1.512v-1.536l-1.512 1.536zm70.332-3.576h-4.536v8.868h-.936v-9.804h5.472v.936zm0 1.872h-2.664v6.996h-.936v-7.932h3.6v.936zM23.094 284.8v-12.6h7.2v12.6h-7.2zm71.971-4.872a4.069 4.069 0 01-1.62-.324 4.357 4.357 0 01-1.32-.888 4.212 4.212 0 01-.9-1.332 4.069 4.069 0 01-.324-1.62c0-.576.108-1.112.324-1.608.216-.504.512-.948.888-1.332a4.212 4.212 0 011.332-.9 4.069 4.069 0 011.62-.324 4.069 4.069 0 012.94 1.224 4.073 4.073 0 011.224 2.94c0 .576-.108 1.116-.324 1.62a4.05 4.05 0 01-.888 1.332 4.17 4.17 0 01-1.32.888 4.099 4.099 0 01-1.632.324zm-1.56-3.24a.862.862 0 00.648-.276.887.887 0 00.276-.648.862.862 0 00-.276-.648.862.862 0 00-.648-.276.887.887 0 00-.648.276.862.862 0 00-.276.648c0 .248.092.464.276.648.184.184.4.276.648.276zm3.12 0a.862.862 0 00.648-.276.887.887 0 00.276-.648.862.862 0 00-.276-.648.862.862 0 00-.648-.276.887.887 0 00-.648.276.862.862 0 00-.276.648c0 .248.092.464.276.648.184.184.4.276.648.276zm66.815 8.112v-8.4h3.6v8.4h-3.6zm63.595 0v-8.4h7.2v8.4h-7.2zm66.727-8.868v-.936h8.136v.936h-8.136zm8.136 1.872h-2.664v6.996h-.936v-7.932h3.6v.936zm-4.536 6.996h-.936v-6.996h-2.664v-.936h3.6v7.932zm64.064-14.7V268h7.2v2.1h-7.2zm72.199 14.7h-.936v-8.868h-4.536v-.936h5.472v9.804zm-1.872 0h-.936v-6.996h-2.664v-.936h3.6v7.932zm65.887-6.18v-3.528h3.552v3.528h-3.552zm1.776-.144c.232 0 .448-.04.648-.12.2-.08.372-.192.516-.336.144-.144.256-.316.336-.516.088-.2.132-.416.132-.648 0-.232-.044-.448-.132-.648-.08-.2-.192-.372-.336-.516a1.517 1.517 0 00-.516-.336c-.2-.08-.416-.12-.648-.12-.232 0-.448.04-.648.12-.2.08-.372.192-.516.336-.144.144-.26.316-.348.516-.08.2-.12.416-.12.648 0 .232.04.448.12.648.088.2.204.372.348.516.144.144.316.256.516.336.2.08.416.12.648.12zm64.412.324v-5.52h5.568v5.52h-5.568zm2.784-.048c.4 0 .768-.068 1.104-.204.336-.136.624-.324.864-.564a2.737 2.737 0 00.768-1.944c0-.384-.068-.74-.204-1.068a2.568 2.568 0 00-.564-.864 2.481 2.481 0 00-.864-.576 2.916 2.916 0 00-1.104-.204c-.4 0-.768.068-1.104.204a2.481 2.481 0 00-.864.576c-.24.24-.428.528-.564.864a2.76 2.76 0 00-.204 1.068 2.737 2.737 0 00.768 1.944c.24.24.528.428.864.564.336.136.704.204 1.104.204zm0-.588c-.296 0-.572-.052-.828-.156a2 2 0 01-.648-.432 2.221 2.221 0 01-.42-.672 2.337 2.337 0 01-.156-.864c0-.312.052-.596.156-.852.104-.264.244-.488.42-.672.184-.192.4-.34.648-.444.256-.104.532-.156.828-.156.296 0 .568.052.816.156.256.104.472.252.648.444.184.184.328.408.432.672.104.256.156.54.156.852 0 .312-.052.6-.156.864-.104.256-.248.48-.432.672a1.842 1.842 0 01-.648.432 2.09 2.09 0 01-.816.156zm63.595 6.636V268h3.6v8.4h3.6v8.4h-7.2zm67.807-4.392v-4.752h.612c0 .576.104 1.116.312 1.62.216.496.512.936.888 1.32.384.376.824.672 1.32.888a4.204 4.204 0 001.62.312c.576 0 1.112-.104 1.608-.312a4.17 4.17 0 001.32-.888c.384-.384.68-.824.888-1.32a4.069 4.069 0 00.324-1.62h.612v4.752h-9.504zm4.752-1.284c-.48 0-.932-.088-1.356-.264a3.727 3.727 0 01-1.104-.744 3.727 3.727 0 01-.744-1.104 3.501 3.501 0 01-.264-1.356h6.936c0 .48-.092.932-.276 1.356a3.446 3.446 0 01-.744 1.104c-.312.312-.68.56-1.104.744a3.413 3.413 0 01-1.344.264zm65.359 5.676V268h3.6v8.4h3.6v8.4h-7.2zm74.395-8.4h-3.6v8.4h-3.6V268h7.2v8.4zm59.996 8.4V268h3.6v8.4h3.6v8.4h-7.2zm74.863-8.868h-4.536v8.868h-.936v-9.804h5.472v.936zm0 1.872h-2.664v6.996h-.936v-7.932h3.6v.936zm-854.933 67.124a4.069 4.069 0 01-1.62-.324 4.357 4.357 0 01-1.32-.888 4.212 4.212 0 01-.9-1.332 4.069 4.069 0 01-.324-1.62c0-.576.108-1.112.324-1.608.216-.504.512-.948.888-1.332a4.212 4.212 0 011.332-.9 4.069 4.069 0 011.62-.324 4.069 4.069 0 012.94 1.224 4.073 4.073 0 011.224 2.94c0 .576-.108 1.116-.324 1.62a4.05 4.05 0 01-.888 1.332 4.17 4.17 0 01-1.32.888 4.099 4.099 0 01-1.632.324zm-1.56-3.24a.862.862 0 00.648-.276.887.887 0 00.276-.648.862.862 0 00-.276-.648.862.862 0 00-.648-.276.887.887 0 00-.648.276.862.862 0 00-.276.648c0 .248.092.464.276.648.184.184.4.276.648.276zm3.12 0a.862.862 0 00.648-.276.887.887 0 00.276-.648.862.862 0 00-.276-.648.862.862 0 00-.648-.276.887.887 0 00-.648.276.862.862 0 00-.276.648c0 .248.092.464.276.648.184.184.4.276.648.276zM190.821 333h3.6v8.4h-3.6V333zm-3.6 8.4h3.6v8.4h-3.6v-8.4zm71.971 3.528a4.069 4.069 0 01-1.62-.324 4.357 4.357 0 01-1.32-.888 4.212 4.212 0 01-.9-1.332 4.069 4.069 0 01-.324-1.62c0-.576.108-1.112.324-1.608.216-.504.512-.948.888-1.332a4.212 4.212 0 011.332-.9 4.069 4.069 0 011.62-.324 4.069 4.069 0 012.94 1.224 4.073 4.073 0 011.224 2.94c0 .576-.108 1.116-.324 1.62a4.17 4.17 0 01-2.22 2.22 4.069 4.069 0 01-1.62.324zm0-.864c.464 0 .896-.084 1.296-.252.4-.176.748-.416 1.044-.72.304-.304.54-.652.708-1.044.168-.4.252-.828.252-1.284 0-.464-.088-.896-.264-1.296a3.135 3.135 0 00-.708-1.044 3.269 3.269 0 00-2.328-.96c-.464 0-.896.088-1.296.264-.4.168-.752.404-1.056.708a3.368 3.368 0 00-.696 1.056 3.195 3.195 0 00-.252 1.272c0 .464.084.896.252 1.296.176.4.416.752.72 1.056.304.296.652.528 1.044.696.4.168.828.252 1.284.252zm1.56-2.376a.907.907 0 01-.648-.264.9.9 0 01-.276-.66c0-.256.092-.472.276-.648a.887.887 0 01.648-.276c.256 0 .472.092.648.276a.862.862 0 01.276.648.887.887 0 01-.276.648.862.862 0 01-.648.276zm68.219 8.112h-.936v-8.868h-4.536v-.936h5.472v9.804zm-1.872 0h-.936v-6.996h-2.664v-.936h3.6v7.932zm64.063 0v-8.4h3.6v8.4h-3.6zm67.807-4.752v-8.784h8.784v8.784h-8.784zm8.244-.864v-2.136l-5.22-5.244h-2.148l7.368 7.38zm0-2.892v-2.184l-2.292-2.304h-2.16l4.452 4.488zm0-2.952v-1.536h-1.536l1.536 1.536zm-2.604 6.168h2.148l-7.248-7.26v2.136l5.1 5.124zm-2.82 0h2.052l-4.332-4.368v2.064l2.28 2.304zm-2.28 0h1.512l-1.512-1.536v1.536zm68.856 5.292v-8.4h3.6v8.4h-3.6zm71.972-4.872a4.069 4.069 0 01-1.62-.324 4.357 4.357 0 01-1.32-.888 4.212 4.212 0 01-.9-1.332 4.069 4.069 0 01-.324-1.62c0-.576.108-1.112.324-1.608.216-.504.512-.948.888-1.332a4.212 4.212 0 011.332-.9 4.069 4.069 0 011.62-.324 4.069 4.069 0 012.94 1.224 4.073 4.073 0 011.224 2.94c0 .576-.108 1.116-.324 1.62a4.05 4.05 0 01-.888 1.332 4.17 4.17 0 01-1.32.888 4.099 4.099 0 01-1.632.324zm-1.56-3.24a.862.862 0 00.648-.276.887.887 0 00.276-.648.862.862 0 00-.276-.648.862.862 0 00-.648-.276.887.887 0 00-.648.276.862.862 0 00-.276.648c0 .248.092.464.276.648.184.184.4.276.648.276zm3.12 0a.862.862 0 00.648-.276.887.887 0 00.276-.648.862.862 0 00-.276-.648.862.862 0 00-.648-.276.887.887 0 00-.648.276.862.862 0 00-.276.648c0 .248.092.464.276.648.184.184.4.276.648.276zm63.826 3.36v-8.784h8.784v8.784h-8.784zm8.244-.864v-2.136l-5.22-5.244h-2.148l7.368 7.38zm0-2.892v-2.184l-2.292-2.304h-2.16l4.452 4.488zm0-2.952v-1.536h-1.536l1.536 1.536zm-2.604 6.168h2.148l-7.248-7.26v2.136l5.1 5.124zm-2.82 0h2.052l-4.332-4.368v2.064l2.28 2.304zm-2.28 0h1.512l-1.512-1.536v1.536zm70.68-.888v-3.528h3.552v3.528h-3.552zm1.776-.144c.232 0 .448-.04.648-.12.2-.08.372-.192.516-.336.144-.144.256-.316.336-.516.088-.2.132-.416.132-.648 0-.232-.044-.448-.132-.648-.08-.2-.192-.372-.336-.516a1.517 1.517 0 00-.516-.336c-.2-.08-.416-.12-.648-.12-.232 0-.448.04-.648.12-.2.08-.372.192-.516.336-.144.144-.26.316-.348.516-.08.2-.12.416-.12.648 0 .232.04.448.12.648.088.2.204.372.348.516.144.144.316.256.516.336.2.08.416.12.648.12zm64.207 1.572v-8.784h8.784v8.784h-8.784zm4.404-7.608l.624-.636h-1.236l.612.636zm-1.452 1.452l1.068-1.068-.996-1.02h-.156l-1.008 1.008 1.092 1.08zm-1.464-1.464l.612-.624h-1.224l.612.624zm4.368 1.464l1.08-1.08-.984-1.008h-.168l-.996 1.02 1.068 1.068zm1.464-1.464l.612-.624h-1.224l.612.624zm-6.78.936l.564-.552-.564-.564v1.116zm7.704-.024v-1.068l-.528.54.528.528zm-6.744 2.004l1.068-1.068-1.08-1.068-.948.936v.24l.96.96zm5.796 0l.948-.936v-.3l-.924-.9-1.08 1.08 1.056 1.056zm-2.892 0l1.08-1.068-1.08-1.068-1.068 1.068 1.068 1.068zm-1.452 1.452l1.068-1.068-1.068-1.068-1.068 1.068 1.068 1.068zm2.904 0l1.068-1.068-1.068-1.056-1.068 1.068 1.068 1.056zm-5.316-.48l.576-.588-.576-.588v1.176zm7.704-.024v-1.116l-.564.552.564.564zm-6.696 1.92l1.02-1.032-1.068-1.068-.96.972v.12l1.008 1.008zm5.724 0l.972-.984v-.18l-.948-.936-1.056 1.068 1.032 1.032zm-2.868.06l1.08-1.092-1.08-1.056-1.068 1.08 1.068 1.068zm1.236 1.236h.348l.9-.9-1.032-1.044-1.068 1.092.852.852zm-2.82 0h.348l.852-.852-1.068-1.08-1.032 1.032.9.9zm-2.28-.3l.624-.612-.624-.624v1.236zm7.704-.024v-1.164l-.588.588.588.576zm-1.488.324h1.032l-.516-.516-.516.516zm-5.724 0h1.02l-.504-.516-.516.516zm2.904 0h.936l-.468-.468-.468.468zm66.072.54v-8.784h8.784v8.784h-8.784zm.54-3.756l4.452-4.488h-2.16l-2.292 2.304v2.184zm0 2.892l7.368-7.38h-2.148l-5.22 5.244v2.136zm0-5.844l1.536-1.536h-1.536v1.536zm.456 6.168h2.148l5.1-5.124v-2.136l-7.248 7.26zm2.916 0h2.052l2.28-2.304v-2.064l-4.332 4.368zm2.82 0h1.512v-1.536l-1.512 1.536z" fill="#8FBBEE"/>
    <path d="M376.743 112.091h-3.512v-1.332c0-1.321.55-2.059 2.036-2.059.628 0 1.156.143 1.487.242l.803-3.082c-.517-.176-1.651-.462-3.027-.462-2.939 0-5.284 1.684-5.284 5.097v1.596h-2.499v3.082h2.499V129h3.985v-13.827h3.512v-3.082zM379.864 129h3.985v-16.909h-3.985V129zm2.003-19.309c1.266 0 2.301-.969 2.301-2.158 0-1.2-1.035-2.168-2.301-2.168-1.277 0-2.312.968-2.312 2.168 0 1.189 1.035 2.158 2.312 2.158zm13.433 25.936c4.569 0 7.937-2.091 7.937-6.352v-17.184h-3.93v2.796h-.22c-.605-1.222-1.871-3.016-4.855-3.016-3.908 0-6.979 3.06-6.979 8.619 0 5.516 3.071 8.268 6.968 8.268 2.896 0 4.25-1.552 4.866-2.796h.198v3.203c0 2.422-1.651 3.446-3.919 3.446-2.4 0-3.456-1.134-3.941-2.059l-3.589.87c.727 2.301 3.16 4.205 7.464 4.205zm.033-9.996c-2.631 0-4.018-2.047-4.018-5.163 0-3.071 1.365-5.328 4.018-5.328 2.565 0 3.974 2.125 3.974 5.328 0 3.226-1.431 5.163-3.974 5.163zM407.322 129h3.985v-10.282c0-2.081 1.387-3.49 3.104-3.49 1.684 0 2.84 1.134 2.84 2.874V129h3.908v-10.546c0-1.905 1.134-3.226 3.061-3.226 1.607 0 2.884.947 2.884 3.039V129h3.996v-11.35c0-3.776-2.18-5.779-5.284-5.779-2.455 0-4.327 1.211-5.075 3.093h-.176c-.65-1.915-2.29-3.093-4.569-3.093-2.268 0-3.963 1.167-4.667 3.093h-.199v-2.873h-3.808V129zm32.687.341c2.653 0 4.238-1.244 4.964-2.664h.133V129h3.83v-11.317c0-4.469-3.643-5.812-6.869-5.812-3.556 0-6.286 1.585-7.166 4.667l3.72.529c.397-1.156 1.52-2.147 3.468-2.147 1.85 0 2.862.947 2.862 2.609v.066c0 1.145-1.2 1.2-4.183 1.519-3.28.353-6.418 1.332-6.418 5.141 0 3.325 2.433 5.086 5.659 5.086zm1.034-2.928c-1.662 0-2.851-.76-2.851-2.224 0-1.53 1.332-2.168 3.116-2.422 1.045-.143 3.137-.407 3.654-.825v1.992c0 1.883-1.519 3.479-3.919 3.479zm22.15-8.444h-10.15v3.281h10.15v-3.281zM467.384 129h3.985v-10.282c0-2.081 1.387-3.49 3.104-3.49 1.685 0 2.841 1.134 2.841 2.874V129h3.908v-10.546c0-1.905 1.134-3.226 3.06-3.226 1.607 0 2.884.947 2.884 3.039V129h3.996v-11.35c0-3.776-2.179-5.779-5.284-5.779-2.455 0-4.326 1.211-5.075 3.093h-.176c-.649-1.915-2.29-3.093-4.568-3.093-2.268 0-3.963 1.167-4.668 3.093h-.198v-2.873h-3.809V129zm35.307.33c3.941 0 6.649-1.926 7.354-4.866l-3.721-.418c-.54 1.431-1.861 2.18-3.578 2.18-2.576 0-4.282-1.695-4.315-4.591h11.779v-1.222c0-5.933-3.567-8.542-7.728-8.542-4.844 0-8.003 3.555-8.003 8.774 0 5.306 3.115 8.685 8.212 8.685zm-4.249-10.381c.121-2.157 1.717-3.974 4.095-3.974 2.29 0 3.831 1.673 3.853 3.974h-7.948zm28.504-2.389c-.551-2.862-2.841-4.689-6.804-4.689-4.073 0-6.847 2.003-6.836 5.13-.011 2.466 1.508 4.095 4.756 4.766l2.884.606c1.552.341 2.279.969 2.279 1.926 0 1.156-1.255 2.026-3.149 2.026-1.827 0-3.016-.793-3.357-2.312l-3.886.374c.495 3.105 3.104 4.943 7.254 4.943 4.228 0 7.211-2.19 7.222-5.394-.011-2.411-1.563-3.886-4.756-4.579l-2.884-.617c-1.717-.385-2.4-.98-2.389-1.959-.011-1.145 1.255-1.938 2.917-1.938 1.839 0 2.808 1.002 3.116 2.114l3.633-.397zm17.013 0c-.55-2.862-2.84-4.689-6.803-4.689-4.073 0-6.847 2.003-6.836 5.13-.011 2.466 1.508 4.095 4.755 4.766l2.885.606c1.552.341 2.278.969 2.278 1.926 0 1.156-1.255 2.026-3.148 2.026-1.827 0-3.016-.793-3.358-2.312l-3.886.374c.496 3.105 3.105 4.943 7.255 4.943 4.227 0 7.211-2.19 7.222-5.394-.011-2.411-1.564-3.886-4.756-4.579l-2.884-.617c-1.718-.385-2.4-.98-2.389-1.959-.011-1.145 1.255-1.938 2.917-1.938 1.838 0 2.807 1.002 3.115 2.114l3.633-.397zm11.135 12.77c3.941 0 6.65-1.926 7.354-4.866l-3.721-.418c-.539 1.431-1.86 2.18-3.578 2.18-2.576 0-4.282-1.695-4.315-4.591h11.779v-1.222c0-5.933-3.567-8.542-7.728-8.542-4.843 0-8.003 3.555-8.003 8.774 0 5.306 3.115 8.685 8.212 8.685zm-4.249-10.381c.121-2.157 1.717-3.974 4.095-3.974 2.29 0 3.831 1.673 3.853 3.974h-7.948zm19.125.143c0-2.444 1.475-3.853 3.577-3.853 2.059 0 3.292 1.354 3.292 3.611V129h3.985v-10.766c.011-4.051-2.301-6.363-5.79-6.363-2.532 0-4.272 1.211-5.042 3.093h-.198v-2.873h-3.809V129h3.985v-9.908zm22.259 16.535c4.568 0 7.937-2.091 7.937-6.352v-17.184h-3.93v2.796h-.22c-.606-1.222-1.872-3.016-4.855-3.016-3.908 0-6.979 3.06-6.979 8.619 0 5.516 3.071 8.268 6.968 8.268 2.895 0 4.249-1.552 4.866-2.796h.198v3.203c0 2.422-1.651 3.446-3.919 3.446-2.4 0-3.457-1.134-3.941-2.059l-3.589.87c.727 2.301 3.16 4.205 7.464 4.205zm.033-9.996c-2.631 0-4.018-2.047-4.018-5.163 0-3.071 1.365-5.328 4.018-5.328 2.565 0 3.974 2.125 3.974 5.328 0 3.226-1.431 5.163-3.974 5.163zm19.474 3.699c3.941 0 6.649-1.926 7.354-4.866l-3.721-.418c-.54 1.431-1.861 2.18-3.578 2.18-2.576 0-4.282-1.695-4.315-4.591h11.779v-1.222c0-5.933-3.567-8.542-7.728-8.542-4.844 0-8.003 3.555-8.003 8.774 0 5.306 3.115 8.685 8.212 8.685zm-4.249-10.381c.121-2.157 1.717-3.974 4.095-3.974 2.29 0 3.831 1.673 3.853 3.974h-7.948zM622.626 129h3.985v-9.941c0-2.146 1.619-3.666 3.809-3.666.672 0 1.508.122 1.85.232v-3.666a9.586 9.586 0 00-1.431-.11c-1.938 0-3.556 1.101-4.173 3.06h-.176v-2.818h-3.864V129zm-480.112 44.876h7.09V194h2.73v-20.124h7.089v-2.421h-16.909v2.421zm20.506 26.421c2.345 0 4.007-1.244 4.976-3.831l7.2-19.331-2.84-.044-4.668 13.474h-.176l-4.668-13.474h-2.818l6.253 16.997-.484 1.321c-.925 2.532-2.114 2.774-4.008 2.29l-.66 2.29c.264.132 1.013.308 1.893.308zm15.613.044h2.598v-8.939h.22c.573.925 1.674 2.95 4.932 2.95 4.227 0 7.178-3.39 7.178-8.763 0-5.328-2.951-8.718-7.222-8.718-3.302 0-4.315 2.025-4.888 2.906h-.308v-2.686h-2.51v23.25zm2.554-14.796c0-3.786 1.673-6.34 4.844-6.34 3.302 0 4.932 2.774 4.932 6.34 0 3.611-1.674 6.473-4.932 6.473-3.126 0-4.844-2.642-4.844-6.473zm23.426 8.807c3.435 0 5.945-1.717 6.738-4.271l-2.51-.705c-.661 1.762-2.191 2.642-4.228 2.642-3.049 0-5.152-1.97-5.273-5.592h12.275v-1.101c0-6.297-3.743-8.454-7.266-8.454-4.579 0-7.618 3.611-7.618 8.807s2.995 8.674 7.882 8.674zm-5.273-10.172c.176-2.631 2.037-4.975 5.009-4.975 2.818 0 4.624 2.113 4.624 4.975h-9.633zm25.914-1.056h-9.863v2.421h9.863v-2.421zm16.549-2.246c-.815-2.4-2.642-4.007-5.989-4.007-3.567 0-6.209 2.025-6.209 4.888 0 2.333 1.387 3.897 4.492 4.623l2.818.661c1.706.396 2.51 1.211 2.51 2.377 0 1.454-1.541 2.642-3.963 2.642-2.125 0-3.457-.913-3.919-2.73l-2.466.617c.605 2.873 2.972 4.403 6.429 4.403 3.93 0 6.605-2.146 6.605-5.064 0-2.355-1.475-3.842-4.491-4.579l-2.51-.617c-2.004-.495-2.907-1.167-2.907-2.466 0-1.453 1.542-2.51 3.611-2.51 2.268 0 3.204 1.255 3.655 2.422l2.334-.66zm9.195 13.518c2.95 0 4.491-1.585 5.02-2.686h.132V194h2.598v-11.141c0-5.372-4.095-5.988-6.253-5.988-2.554 0-5.46.88-6.781 3.963l2.466.88c.572-1.232 1.926-2.553 4.403-2.553 2.389 0 3.567 1.265 3.567 3.434v.088c0 1.255-1.277 1.145-4.36 1.541-3.137.408-6.561 1.101-6.561 4.976 0 3.303 2.554 5.196 5.769 5.196zm.396-2.334c-2.07 0-3.567-.924-3.567-2.73 0-1.981 1.806-2.598 3.831-2.862 1.101-.132 4.051-.44 4.492-.969v2.378c0 2.114-1.674 4.183-4.756 4.183zm19.625-14.971h-3.786v-1.717c0-1.674.704-2.554 2.421-2.554.749 0 1.189.176 1.454.264l.748-2.246c-.396-.176-1.189-.44-2.466-.44-2.422 0-4.755 1.453-4.755 4.359v2.334h-2.731v2.202h2.731V194h2.598v-14.707h3.786v-2.202zm10.035 17.261c3.434 0 5.944-1.717 6.737-4.271l-2.51-.705c-.66 1.762-2.191 2.642-4.227 2.642-3.05 0-5.152-1.97-5.273-5.592h12.274v-1.101c0-6.297-3.743-8.454-7.265-8.454-4.58 0-7.618 3.611-7.618 8.807s2.994 8.674 7.882 8.674zm-5.273-10.172c.176-2.631 2.036-4.975 5.009-4.975 2.818 0 4.623 2.113 4.623 4.975h-9.632zm24.265 9.82h3.292v-16.909h-3.292V194zm1.662-19.518c1.134 0 2.081-.881 2.081-1.96 0-1.078-.947-1.97-2.081-1.97-1.144 0-2.08.892-2.08 1.97 0 1.079.936 1.96 2.08 1.96zm14.105 2.609h-3.644v-1.519c0-1.497.617-2.312 2.224-2.312.683 0 1.167.154 1.475.253l.771-2.664c-.463-.176-1.42-.451-2.752-.451-2.675 0-5.02 1.563-5.02 4.733v1.96h-2.609v2.642h2.609V194h3.302v-14.267h3.644v-2.642zM319.209 194h3.292v-10.326c0-2.213 1.706-3.809 4.04-3.809.683 0 1.453.121 1.717.198v-3.148c-.33-.044-.979-.077-1.398-.077-1.981 0-3.677 1.123-4.293 2.939h-.176v-2.686h-3.182V194zm16.667.374c2.796 0 4.371-1.42 4.998-2.686h.132V194h3.215v-11.229c0-4.921-3.875-5.9-6.561-5.9-3.061 0-5.879 1.233-6.98 4.315l3.094.705c.484-1.2 1.717-2.356 3.93-2.356 2.124 0 3.214 1.112 3.214 3.027v.077c0 1.2-1.233 1.178-4.271 1.53-3.204.375-6.484 1.211-6.484 5.053 0 3.325 2.499 5.152 5.713 5.152zm.716-2.642c-1.861 0-3.204-.836-3.204-2.466 0-1.761 1.563-2.389 3.468-2.642 1.068-.143 3.6-.429 4.073-.902v2.179c0 2.004-1.596 3.831-4.337 3.831zM348.605 194h3.291v-10.425c0-2.279 1.597-3.864 3.468-3.864 1.827 0 3.093 1.211 3.093 3.049V194h3.281v-10.777c0-2.037 1.244-3.512 3.391-3.512 1.739 0 3.17.969 3.17 3.258V194h3.292v-11.339c0-3.864-2.158-5.79-5.218-5.79-2.433 0-4.261 1.167-5.075 2.972h-.177c-.737-1.849-2.289-2.972-4.546-2.972-2.235 0-3.897 1.112-4.602 2.972h-.209v-2.752h-3.159V194zm34.685.341c3.688 0 6.297-1.816 7.045-4.568l-3.115-.562c-.595 1.597-2.026 2.411-3.897 2.411-2.818 0-4.712-1.827-4.8-5.086h12.022v-1.167c0-6.109-3.655-8.498-7.486-8.498-4.712 0-7.816 3.589-7.816 8.785 0 5.251 3.06 8.685 8.047 8.685zm-4.756-10.271c.132-2.4 1.872-4.48 4.547-4.48 2.554 0 4.227 1.893 4.238 4.48h-8.785zm34.721 10.073l1.982-1.981-6.616-6.595h24.703l-6.616 6.595 1.981 1.981 10.007-10.007-10.007-10.006-1.981 1.959 6.616 6.616h-24.703l6.616-6.616-1.982-1.959-10.007 10.006 10.007 10.007zM452.17 194h3.292v-10.425c0-2.279 1.596-3.864 3.467-3.864 1.828 0 3.094 1.211 3.094 3.049V194h3.28v-10.777c0-2.037 1.244-3.512 3.391-3.512 1.739 0 3.17.969 3.17 3.258V194h3.292v-11.339c0-3.864-2.158-5.79-5.218-5.79-2.433 0-4.26 1.167-5.075 2.972h-.176c-.738-1.849-2.29-2.972-4.547-2.972-2.234 0-3.897 1.112-4.601 2.972h-.209v-2.752h-3.16V194zm32.319.374c2.796 0 4.37-1.42 4.997-2.686h.132V194h3.215v-11.229c0-4.921-3.875-5.9-6.561-5.9-3.06 0-5.879 1.233-6.98 4.315l3.094.705c.484-1.2 1.717-2.356 3.93-2.356 2.125 0 3.214 1.112 3.214 3.027v.077c0 1.2-1.233 1.178-4.271 1.53-3.203.375-6.484 1.211-6.484 5.053 0 3.325 2.499 5.152 5.714 5.152zm.715-2.642c-1.86 0-3.203-.836-3.203-2.466 0-1.761 1.563-2.389 3.467-2.642 1.068-.143 3.6-.429 4.073-.902v2.179c0 2.004-1.596 3.831-4.337 3.831zM497.217 194h3.292v-16.909h-3.292V194zm1.662-19.518c1.134 0 2.081-.881 2.081-1.96 0-1.078-.947-1.97-2.081-1.97-1.144 0-2.08.892-2.08 1.97 0 1.079.936 1.96 2.08 1.96zm9.349 9.478c0-2.697 1.652-4.238 3.941-4.238 2.235 0 3.589 1.464 3.589 3.919V194h3.292v-10.755c0-4.184-2.301-6.374-5.758-6.374-2.543 0-4.205 1.178-4.987 2.972h-.209v-2.752h-3.159V194h3.291v-10.04zm31.333-6.869h-3.467v-4.051h-3.292v4.051h-2.477v2.642h2.477v9.985c-.011 3.071 2.334 4.557 4.932 4.502 1.046-.011 1.75-.209 2.136-.352l-.595-2.719c-.22.044-.627.143-1.156.143-1.068 0-2.025-.352-2.025-2.257v-9.302h3.467v-2.642zm7.296 6.869c0-2.697 1.707-4.238 4.051-4.238 2.268 0 3.622 1.442 3.622 3.919V194h3.292v-10.755c0-4.217-2.312-6.374-5.791-6.374-2.631 0-4.216 1.145-5.009 2.972h-.209v-8.388h-3.247V194h3.291v-10.04zM562.214 194h3.292v-10.326c0-2.213 1.706-3.809 4.04-3.809.682 0 1.453.121 1.717.198v-3.148c-.33-.044-.98-.077-1.398-.077-1.981 0-3.677 1.123-4.293 2.939h-.176v-2.686h-3.182V194zm18.58.341c3.688 0 6.297-1.816 7.045-4.568l-3.115-.562c-.595 1.597-2.026 2.411-3.897 2.411-2.818 0-4.712-1.827-4.8-5.086h12.021v-1.167c0-6.109-3.654-8.498-7.485-8.498-4.712 0-7.816 3.589-7.816 8.785 0 5.251 3.06 8.685 8.047 8.685zm-4.756-10.271c.132-2.4 1.872-4.48 4.547-4.48 2.554 0 4.227 1.893 4.238 4.48h-8.785zm20.583 10.304c2.796 0 4.371-1.42 4.998-2.686h.132V194h3.215v-11.229c0-4.921-3.875-5.9-6.561-5.9-3.061 0-5.879 1.233-6.98 4.315l3.094.705c.484-1.2 1.717-2.356 3.93-2.356 2.124 0 3.214 1.112 3.214 3.027v.077c0 1.2-1.233 1.178-4.271 1.53-3.204.375-6.484 1.211-6.484 5.053 0 3.325 2.499 5.152 5.713 5.152zm.716-2.642c-1.861 0-3.204-.836-3.204-2.466 0-1.761 1.564-2.389 3.468-2.642 1.068-.143 3.6-.429 4.073-.902v2.179c0 2.004-1.596 3.831-4.337 3.831zm18.343 2.598c3.082 0 4.293-1.882 4.888-2.961h.275V194h3.214v-22.545h-3.291v8.377h-.198c-.595-1.046-1.718-2.961-4.866-2.961-4.084 0-7.09 3.225-7.09 8.707 0 5.472 2.962 8.752 7.068 8.752zm.726-2.807c-2.939 0-4.469-2.587-4.469-5.978 0-3.357 1.497-5.878 4.469-5.878 2.874 0 4.415 2.345 4.415 5.878 0 3.556-1.574 5.978-4.415 5.978zm27.588 2.829c3.743 0 6.209-2.29 6.649-5.284h-2.598c-.484 1.85-2.026 2.95-4.051 2.95-3.083 0-5.064-2.554-5.064-6.473 0-3.831 2.025-6.34 5.064-6.34 2.29 0 3.655 1.409 4.051 2.95h2.598c-.44-3.171-3.127-5.284-6.693-5.284-4.58 0-7.618 3.611-7.618 8.763 0 5.063 2.906 8.718 7.662 8.718zm17.316 0c4.58 0 7.662-3.478 7.662-8.718 0-5.285-3.082-8.763-7.662-8.763-4.579 0-7.662 3.478-7.662 8.763 0 5.24 3.083 8.718 7.662 8.718zm0-2.334c-3.479 0-5.064-2.994-5.064-6.384 0-3.391 1.585-6.429 5.064-6.429s5.064 3.038 5.064 6.429c0 3.39-1.585 6.384-5.064 6.384zM672.938 194h2.598v-10.568c0-2.477 1.805-4.227 3.831-4.227 1.97 0 3.346 1.288 3.346 3.214V194h2.643v-11.009c0-2.179 1.365-3.786 3.742-3.786 1.85 0 3.435.979 3.435 3.478V194h2.598v-11.317c0-3.974-2.136-5.812-5.152-5.812-2.422 0-4.194 1.112-5.064 2.862h-.176c-.837-1.805-2.312-2.862-4.535-2.862-2.202 0-3.831 1.057-4.536 2.862h-.22v-2.642h-2.51V194zm26.943 0h2.598v-10.568c0-2.477 1.806-4.227 3.831-4.227 1.971 0 3.347 1.288 3.347 3.214V194h2.642v-11.009c0-2.179 1.365-3.786 3.743-3.786 1.849 0 3.434.979 3.434 3.478V194h2.598v-11.317c0-3.974-2.135-5.812-5.152-5.812-2.421 0-4.194 1.112-5.063 2.862h-.177c-.836-1.805-2.311-2.862-4.535-2.862-2.202 0-3.831 1.057-4.536 2.862h-.22v-2.642h-2.51V194zm37.6-6.913c0 3.17-2.422 4.623-4.36 4.623-2.157 0-3.698-1.585-3.698-4.051v-10.568h-2.598v10.744c0 4.316 2.289 6.385 5.46 6.385 2.554 0 4.227-1.365 5.02-3.082h.176V194h2.598v-16.909h-2.598v9.996zm9.954-3.259c0-2.95 1.828-4.623 4.316-4.623 2.411 0 3.875 1.574 3.875 4.227V194h2.598v-10.744c0-4.316-2.301-6.385-5.725-6.385-2.554 0-4.139 1.145-4.932 2.862h-.22v-2.642h-2.51V194h2.598v-10.172zM762.971 194h2.598v-16.909h-2.598V194zm1.321-19.727c1.013 0 1.85-.793 1.85-1.762 0-.968-.837-1.761-1.85-1.761-1.013 0-1.849.793-1.849 1.761 0 .969.836 1.762 1.849 1.762zm12.905 20.079c3.743 0 6.209-2.29 6.649-5.284h-2.598c-.484 1.85-2.026 2.95-4.051 2.95-3.083 0-5.064-2.554-5.064-6.473 0-3.831 2.026-6.34 5.064-6.34 2.29 0 3.655 1.409 4.051 2.95h2.598c-.44-3.171-3.126-5.284-6.693-5.284-4.58 0-7.618 3.611-7.618 8.763 0 5.063 2.906 8.718 7.662 8.718zm15.423.044c2.95 0 4.491-1.585 5.02-2.686h.132V194h2.598v-11.141c0-5.372-4.095-5.988-6.253-5.988-2.554 0-5.46.88-6.781 3.963l2.466.88c.572-1.232 1.926-2.553 4.403-2.553 2.389 0 3.567 1.265 3.567 3.434v.088c0 1.255-1.277 1.145-4.36 1.541-3.137.408-6.561 1.101-6.561 4.976 0 3.303 2.554 5.196 5.769 5.196zm.396-2.334c-2.069 0-3.567-.924-3.567-2.73 0-1.981 1.806-2.598 3.831-2.862 1.101-.132 4.051-.44 4.492-.969v2.378c0 2.114-1.673 4.183-4.756 4.183zm19.449-14.971h-3.61v-4.051h-2.598v4.051h-2.554v2.202h2.554v10.568c0 2.95 2.377 4.359 4.579 4.359.969 0 1.585-.176 1.938-.308l-.529-2.334c-.22.044-.572.132-1.145.132-1.145 0-2.245-.352-2.245-2.554v-9.863h3.61v-2.202zM816.373 194h2.598v-16.909h-2.598V194zm1.321-19.727c1.013 0 1.85-.793 1.85-1.762 0-.968-.837-1.761-1.85-1.761-1.012 0-1.849.793-1.849 1.761 0 .969.837 1.762 1.849 1.762zm12.905 20.079c4.58 0 7.662-3.478 7.662-8.718 0-5.285-3.082-8.763-7.662-8.763-4.579 0-7.662 3.478-7.662 8.763 0 5.24 3.083 8.718 7.662 8.718zm0-2.334c-3.478 0-5.064-2.994-5.064-6.384 0-3.391 1.586-6.429 5.064-6.429 3.479 0 5.064 3.038 5.064 6.429 0 3.39-1.585 6.384-5.064 6.384zm14.226-8.19c0-2.95 1.827-4.623 4.315-4.623 2.411 0 3.875 1.574 3.875 4.227V194h2.598v-10.744c0-4.316-2.3-6.385-5.724-6.385-2.554 0-4.139 1.145-4.932 2.862h-.22v-2.642h-2.51V194h2.598v-10.172z" fill="#3A3A3A"/>
  </g>
  <defs>
    <clipPath id="clip0">
      <path fill="#fff" d="M0 0h1000v300H0z"/>
    </clipPath>
  </defs>
</svg>
